<?xml version="1.0" encoding="utf-8"?>
<!-- Generator: Adobe Illustrator 22.0.0, SVG Export Plug-In . SVG Version: 6.00 Build 0)  -->
<svg version="1.1" id="Layer_1" xmlns="http://www.w3.org/2000/svg" xmlns:xlink="http://www.w3.org/1999/xlink" x="0px" y="0px"
	 viewBox="0 0 100 100" style="enable-background:new 0 0 100 100;" xml:space="preserve">
<style type="text/css">
	.st0{fill:#FFFFFF;}
</style>
<g>
	<path class="st0" d="M56.3,75.2c2.1,2.9,0.6,5.2-3.4,5.2H7.7c-3.9,0-5.5-2.3-3.4-5.2c2.1-2.9,7-5.2,11-5.2h30.1
		C49.3,70,54.3,72.3,56.3,75.2z"/>
	<path class="st0" d="M53.6,19.1H7.1c-3.9,0-7.2,3.2-7.2,7.2v32.5c0,3.9,3.2,7.2,7.2,7.2h46.5c3.9,0,7.2-3.2,7.2-7.2V26.3
		C60.8,22.3,57.5,19.1,53.6,19.1z M55.1,52.5c0,3.9-3.2,7.2-7.2,7.2H12.8c-3.9,0-7.2-3.2-7.2-7.2V32.6c0-3.9,3.2-7.2,7.2-7.2h35.1
		c3.9,0,7.2,3.2,7.2,7.2V52.5z"/>
	<path class="st0" d="M92.8,20.4h-19c-3.9,0-7.2,3.2-7.2,7.2v45.7c0,3.9,3.2,7.2,7.2,7.2h19c3.9,0,7.2-3.2,7.2-7.2V27.5
		C99.9,23.6,96.7,20.4,92.8,20.4z M91.7,54.5H74.3v-5.1h17.4V54.5z M91.7,44.4H74.3v-5.1h17.4V44.4z M91.7,35.5H74.3v-5.1h17.4V35.5
		z"/>
</g>
</svg>
