<?xml version="1.0" encoding="utf-8"?>
<!-- Generator: Adobe Illustrator 24.1.3, SVG Export Plug-In . SVG Version: 6.00 Build 0)  -->
<svg version="1.1" id="Layer_1" xmlns="http://www.w3.org/2000/svg" xmlns:xlink="http://www.w3.org/1999/xlink" x="0px" y="0px"
	 viewBox="0 0 100 100" style="enable-background:new 0 0 100 100;" xml:space="preserve">
<style type="text/css">
	.st0{fill:url(#SVGID_1_);}
	.st1{fill:#FFFFFF;}
	.st2{fill:url(#SVGID_2_);}
</style>
<radialGradient id="SVGID_1_" cx="50" cy="41.3445" r="59.7434" gradientTransform="matrix(1 0 0 0.8406 0 6.5884)" gradientUnits="userSpaceOnUse">
	<stop  offset="0" style="stop-color:#E6007E"/>
	<stop  offset="0.5598" style="stop-color:#921280"/>
	<stop  offset="1" style="stop-color:#591268"/>
</radialGradient>
<path class="st0" d="M50,0.4C22.6,0.4,0.4,22.6,0.4,50S22.6,99.6,50,99.6S99.6,77.4,99.6,50S77.4,0.4,50,0.4L50,0.4z"/>
<g>
	
		<image style="overflow:visible;opacity:0.75;" width="71" height="72" xlink:href="BB56A1BF3A91310B.png"  transform="matrix(1 0 0 1 14.4961 16.4961)">
	</image>
	<g>
		<g>
			<path class="st1" d="M45.2,49.2c2.3,0.1,3.8-1.4,5.4-2.7c1.7-1.4,3.4-2.7,5.1-4c2.6-2.1,2.9-5.5,1-7.9c-2-2.5-5.3-2.8-8-0.8
				c-1.1,0.9-2.2,1.7-3.5,2.7c-0.1-0.5-0.2-0.8-0.2-1c0-2.9,0-5.7,0-8.6c0-2.4,1.3-3.7,3.7-3.7c8,0,15.9,0,23.9,0
				c2.5,0,3.7,1.3,3.7,3.8c0,7.2,0,14.6,0,21.8c0,2.5-1.3,3.7-3.8,3.7c-3.2,0-6.4,0-9.8,0c0,2-0.1,3.8,0.1,5.6c0,0.4,0.4,0.7,0.6,1
				c2.8,3.7,5.6,7.2,8.4,10.8c0.7,0.9,1,1.8,0.3,2.8c-0.8,1.3-2.5,1.3-3.5,0c-1.6-2-3.2-4-4.7-6c-0.3-0.3-0.5-0.7-1.1-1.3
				c0,2.2,0,4.1,0,6c0,1.6-0.8,2.5-2.1,2.5c-1.3,0-2.1-0.9-2.1-2.5c0-1.9,0-3.8,0-6.1c-1.8,2.2-3.3,4.1-4.8,6.1
				c-0.4,0.5-0.7,1-1.1,1.4c-0.9,1-2.1,1.1-3.1,0.4s-1-1.9-0.2-3c1.2-1.6,2.5-3.2,3.7-4.7c0.9-1.1,1.7-2.5,2.8-3.5
				c2.8-2.6,3.3-5.7,2.6-9.5c-0.3,0-0.8,0-1.3,0c-2.9,0-5.8,0.1-8.8,0C46.4,52.5,45.3,51.3,45.2,49.2z"/>
			<path class="st1" d="M45.2,40.6c1.9-1.4,3.5-2.8,5.2-4.1c1.4-1,2.8-1,3.7,0.1c0.9,1.1,0.7,2.5-0.8,3.6c-2.1,1.7-4.3,3.4-6.4,5.1
				c-1.4,1.1-2.3,1.1-3.7-0.1c-1.4-1.1-2.7-2.2-4.4-3.6c0,0.8,0,1.3,0,1.7c0,10,0,20,0,30c0,0.4,0,0.9,0,1.4
				c-0.1,1.5-1.1,2.5-2.5,2.5c-1.4,0.1-2.6-1-2.6-2.5c-0.1-2.3,0-4.5,0-6.8c0-2.4,0-4.8,0-7.2c0-0.7,0.2-1.7-0.9-1.7
				c-1.1,0-1,1-1,1.8c0,4.6,0,9.2,0,13.7c0,1.3-0.5,2.1-1.7,2.6c-1,0.4-2,0.1-2.6-0.7c-0.4-0.7-0.7-1.5-0.7-2.3
				c-0.1-6.1-0.1-12.3,0-18.5c0-1-0.2-1.5-1.1-2c-1.5-0.7-2.2-2-2.2-3.6c-0.1-3.4-0.1-6.9,0-10.3c0.1-2.5,1.7-4.1,4.1-4.1
				c3.4-0.1,6.8-0.1,10.1,0c0.7,0,1.5,0.4,2.1,0.9C41.8,37.6,43.4,39.1,45.2,40.6z"/>
			<path class="st1" d="M33,33.4c-3,0-5.4-2.4-5.4-5.3c0.1-2.9,2.4-5.3,5.3-5.3c2.9,0,5.4,2.4,5.4,5.3S35.9,33.3,33,33.4z"/>
		</g>
	</g>
</g>
<linearGradient id="SVGID_2_" gradientUnits="userSpaceOnUse" x1="50" y1="3.1946" x2="50" y2="22.6491">
	<stop  offset="0" style="stop-color:#FFFFFF"/>
	<stop  offset="0.9994" style="stop-color:#FFFFFF;stop-opacity:0"/>
</linearGradient>
<path class="st2" d="M50,1.8c-19.5,0-35.3,10.9-35.3,24.4S30.5,41.3,50,41.3s35.3-1.7,35.3-15.1S69.5,1.8,50,1.8L50,1.8z"/>
</svg>
