<?xml version="1.0" encoding="utf-8"?>
<!-- Generator: Adobe Illustrator 24.1.3, SVG Export Plug-In . SVG Version: 6.00 Build 0)  -->
<svg version="1.1" id="Layer_1" xmlns="http://www.w3.org/2000/svg" xmlns:xlink="http://www.w3.org/1999/xlink" x="0px" y="0px"
	 viewBox="0 0 100 100" style="enable-background:new 0 0 100 100;" xml:space="preserve">
<style type="text/css">
	.st0{fill:url(#SVGID_1_);}
	.st1{fill:url(#SVGID_2_);}
	.st2{fill:#FFFFFF;}
</style>
<radialGradient id="SVGID_1_" cx="50.6485" cy="39.6256" r="49.6063" gradientUnits="userSpaceOnUse">
	<stop  offset="0" style="stop-color:#F3FF00"/>
	<stop  offset="0.6326" style="stop-color:#F39200"/>
	<stop  offset="1" style="stop-color:#FF5200"/>
</radialGradient>
<path class="st0" d="M50,0.4C22.6,0.4,0.4,22.6,0.4,50S22.6,99.6,50,99.6S99.6,77.4,99.6,50S77.4,0.4,50,0.4L50,0.4z"/>
<linearGradient id="SVGID_2_" gradientUnits="userSpaceOnUse" x1="50" y1="3.3008" x2="50" y2="22.7011">
	<stop  offset="0" style="stop-color:#FFFFFF"/>
	<stop  offset="0.9994" style="stop-color:#FFFFFF;stop-opacity:0"/>
</linearGradient>
<path class="st1" d="M50,1.9c-19.3,0-34.9,10.9-34.9,24.3S30.7,41.3,50,41.3s34.9-1.6,34.9-15.1S69.3,1.9,50,1.9L50,1.9z"/>
<g>
	
		<image style="overflow:visible;opacity:0.75;" width="65" height="63" xlink:href="75A71E7CE9894BF7.png"  transform="matrix(1 0 0 1 17.4961 21.4961)">
	</image>
	<g>
		<path class="st2" d="M41.4,33.5c0-1.3,1-2.4,2.4-2.4h12.4c1.3,0,2.4,1,2.4,2.4v5.8h3.3v-5.8c0-3.1-2.6-5.7-5.7-5.7H43.8
			c-3.1,0-5.7,2.6-5.7,5.7v5.8h3.3V33.5z M48.4,52h3.1c0.8,0,1.4,0.6,1.6,1.3c3-2.9,7.7-7.3,12.6-12H34.2c4.9,4.7,9.6,9.2,12.6,12
			C47,52.6,47.7,52,48.4,52z M69.8,41.3h-1.1L53.2,56v5.2c0,0.9-0.7,1.6-1.6,1.6h-3.1c-0.9,0-1.6-0.7-1.6-1.6V56L31.4,41.3h-1.1
			c-2.2,0-4,1.8-4,4v22.9c0,2.2,1.8,4,4,4h39.5c2.2,0,4-1.8,4-4V45.3C73.8,43.1,72,41.3,69.8,41.3z"/>
	</g>
</g>
</svg>
