<?xml version="1.0" encoding="utf-8"?>
<!-- Generator: Adobe Illustrator 22.0.0, SVG Export Plug-In . SVG Version: 6.00 Build 0)  -->
<svg version="1.1" id="Layer_1" xmlns="http://www.w3.org/2000/svg" xmlns:xlink="http://www.w3.org/1999/xlink" x="0px" y="0px"
	 viewBox="0 0 100 100" style="enable-background:new 0 0 100 100;" xml:space="preserve">
<style type="text/css">
	.st0{fill:#CC00CC;}
</style>
<path class="st0" d="M27.2,68c-5.2,0-10,0-14.8,0C4.6,67.9,0,63.4,0,55.6c0-13,0-26,0-38.9C0,9.1,4.7,4.5,12.3,4.5
	c19.1,0,38.1,0,57.2,0c7.7,0,12.2,4.5,12.3,12.1c0,13.1,0,26.1,0,39.2c0,7.6-4.6,12.1-12.3,12.1c-6,0-12-0.1-18,0.1
	c-1.8,0.1-3.7,0.7-5.2,1.7c-4.9,3.4-9.6,7.2-14.5,10.6c-0.9,0.6-2.4,1.1-3.4,0.7c-0.7-0.3-1.2-1.9-1.2-3
	C27.1,74.9,27.2,71.6,27.2,68z M31.9,74.8c4.8-3.6,8.9-6.8,13.2-9.9c1.2-0.8,2.8-1.4,4.2-1.4c6.7-0.1,13.4,0,20.1-0.1
	c5.1,0,7.8-2.7,7.8-7.7c0-13.1,0-26.1,0-39.2c0-4.9-2.7-7.6-7.6-7.6C50.6,9,31.5,9,12.5,9c-5.2,0-7.8,2.5-7.8,7.6
	c0,13.2,0,26.3,0,39.5c0,4.7,2.7,7.4,7.5,7.4c5.4,0,10.9,0.1,16.3,0c2.5,0,3.5,1,3.4,3.4C31.8,69.3,31.9,71.7,31.9,74.8z"/>
<path class="st0" d="M68.1,88.2c0-2.9,0.1-5.3,0-7.6C68,78.1,69,77,71.6,77c5.3,0.1,10.5,0,15.8,0c5.3,0,7.9-2.5,7.9-7.8
	c0-13,0-26,0-38.9c0-4.8-1.9-6.8-6.6-7.8c-0.9-0.2-2.4-0.5-2.4-2.3c0-1.2,0.6-2,2.7-2c4.7,0,9.5,3.7,10.5,8.6
	c0.3,1.3,0.4,2.7,0.4,4.1c0,12.6,0,25.2,0,37.8c0,8.4-4.5,12.8-13,12.9c-4.6,0-9.2,0-14.2,0c0,3.5,0.1,6.7-0.1,9.9
	c-0.1,1.1-0.5,3-1.2,3.2c-1,0.3-2.6-0.2-3.6-0.9c-5.6-4-11.1-8.2-16.6-12.4c-1.2-0.9-1.9-2.1-0.8-3.5c1.1-1.4,2.4-1,3.6-0.1
	c0.4,0.3,0.7,0.5,1.1,0.8c3.5,2.6,7,5.2,10.5,7.8C66.3,87,67,87.5,68.1,88.2z"/>
<path class="st0" d="M18.3,36.3c0-12.6,10-22.8,22.5-22.8c12.4-0.1,22.8,10.2,22.8,22.6c0,12.5-10.1,22.7-22.6,22.8
	C28.5,59,18.3,48.9,18.3,36.3z M43.4,18.9c0,5.4,0,10.2,0,14.9c2.3,0,4.3,0,6.4,0C49.2,28.2,48.2,23.1,43.4,18.9z M43.3,53.8
	c4.7-4.5,6-9.6,6.5-15.2c-2.3,0-4.3,0-6.5,0C43.3,43.5,43.3,48.2,43.3,53.8z M38.4,18.7c-4.7,4.4-6,9.5-6.4,15.1c2.4,0,4.4,0,6.4,0
	C38.4,28.8,38.4,24.1,38.4,18.7z M31.9,38.6c0.8,5.7,1.8,10.9,6.5,15c0-5.3,0-10.1,0-15C36.2,38.6,34.3,38.6,31.9,38.6z M58.8,33.9
	c-0.8-5-2.9-8.8-6.9-12.1c1,4.3,1.9,8.1,2.9,12.1C55.9,33.9,57.2,33.9,58.8,33.9z M51.9,50.6c3.9-3.3,6.2-7.1,6.9-12
	c-1.6,0-2.9,0-3.9,0C53.8,42.7,52.9,46.5,51.9,50.6z M27,33.9c1-4.1,1.9-8,2.9-12.2c-3.9,3.4-6.3,7.1-6.8,12.2
	C24.7,33.9,25.8,33.9,27,33.9z M23.1,38.6c0.7,5.1,3,8.9,6.8,12.1c-1-4.3-2-8.1-2.9-12.1C25.9,38.6,24.7,38.6,23.1,38.6z"/>
</svg>
