<?xml version="1.0" encoding="utf-8"?>
<!-- Generator: Adobe Illustrator 22.0.0, SVG Export Plug-In . SVG Version: 6.00 Build 0)  -->
<svg version="1.1" id="Layer_1" xmlns="http://www.w3.org/2000/svg" xmlns:xlink="http://www.w3.org/1999/xlink" x="0px" y="0px"
	 viewBox="0 0 253 100" style="enable-background:new 0 0 253 100;" xml:space="preserve">
<style type="text/css">
	.st0{fill:url(#SVGID_1_);}
	.st1{fill:#FFFFFF;}
	.st2{fill:none;}
	.st3{fill:url(#SVGID_2_);}
	.st4{fill:url(#SVGID_3_);}
	.st5{fill:url(#SVGID_4_);}
	.st6{fill:url(#SVGID_5_);}
	.st7{fill:url(#SVGID_6_);}
	.st8{fill:url(#SVGID_7_);}
	.st9{fill:url(#SVGID_8_);}
</style>
<g>
	<linearGradient id="SVGID_1_" gradientUnits="userSpaceOnUse" x1="155.5016" y1="101.1327" x2="155.5016" y2="39.3528">
		<stop  offset="0" style="stop-color:#921280"/>
		<stop  offset="1" style="stop-color:#E6007E"/>
	</linearGradient>
	<path class="st0" d="M164.3,44.3c3.1,0,4,1.1,3.4,4.1l-8.4,47.6c-0.5,3-1.8,4.1-4.9,4.1h-11.7c-3.1,0-4-1.1-3.4-4.1l8.4-47.6
		c0.5-3,1.8-4.1,4.9-4.1H164.3z M164.9,22.6c6.1,0,7.7,1.9,6.5,7.9l-0.2,1.2c-1.2,6-3.2,7.9-9.3,7.9h-5.4c-6.1,0-7.7-1.9-6.5-7.9
		l0.1-1.2c1.2-6,3.4-7.9,9.4-7.9H164.9z"/>
	<path class="st1" d="M190.3,52.6c-1.3,3-2.8,4.1-6.1,4.1h-6.4c-2.6,0-3.2-0.6-2.7-3.1l5.8-24.4c1-4,2.5-5.5,6.2-5.5h9.9
		c4,0,5.3,1.8,3.6,5.5L190.3,52.6z"/>
	<path class="st2" d="M46.2,61.8h17.5l-2.3-16.5c0-0.3-0.1-0.7-0.1-1c-0.2-2-0.7-6.9-2.1-12.7c-1.2,4.6-2.9,9.1-5,13.6L46.2,61.8z"
		/>
	<path d="M61.4,44.3c0,0.3,0.1,0.7,0.1,1C61.4,45.4,61.4,45,61.4,44.3z"/>
	<linearGradient id="SVGID_2_" gradientUnits="userSpaceOnUse" x1="75.965" y1="111.1592" x2="60.7259" y2="32.9047">
		<stop  offset="0" style="stop-color:#921280"/>
		<stop  offset="0.5135" style="stop-color:#E6007E"/>
		<stop  offset="0.9865" style="stop-color:#FF009E"/>
	</linearGradient>
	<path class="st3" d="M96.9,94.2L80.2,4.6C79.5,1.1,77.6,0,73.6,0H57.6H29.4c7.9,0,13.9,3.3,18.4,8.1c6.1,6.5,9.6,15.9,11.4,23.6
		c1.4,5.8,2,10.7,2.1,12.7c0.1,0.6,0.1,1,0.1,1l2.3,16.5l2.5,22.1l1.4,10.1c0.4,4.5,2.5,5.9,9.4,5.9h14.6C96,100,97.6,98,96.9,94.2z
		"/>
	<path class="st2" d="M4.7,88.7c-0.1,0.1-0.1,0.2-0.2,0.3C4.5,88.9,4.6,88.8,4.7,88.7z"/>
	<path class="st2" d="M2.4,92.2c-0.1,0.1-0.1,0.2-0.2,0.3C2.3,92.4,2.4,92.3,2.4,92.2z"/>
	<path class="st2" d="M3.6,90.3c-0.1,0.2-0.3,0.4-0.4,0.6C3.4,90.7,3.5,90.5,3.6,90.3z"/>
	<linearGradient id="SVGID_3_" gradientUnits="userSpaceOnUse" x1="30.2629" y1="76.0089" x2="30.2629" y2="13.3931">
		<stop  offset="0" style="stop-color:#FF5200"/>
		<stop  offset="0.527" style="stop-color:#F39200"/>
		<stop  offset="1" style="stop-color:#F3FF00"/>
	</linearGradient>
	<path class="st4" d="M2.4,92.2c0.3-0.4,0.5-0.9,0.8-1.3c0.1-0.2,0.3-0.4,0.4-0.6c0.3-0.4,0.5-0.8,0.8-1.3c0.1-0.1,0.1-0.2,0.2-0.3
		c9.1-13.4,24.4-25,41.9-27.5l7.7-16c2.1-4.4,3.7-8.9,5-13.6c-1.9-7.7-5.3-17-11.4-23.6L1.3,94.2c0.3-0.6,0.6-1.1,1-1.7
		C2.3,92.4,2.4,92.3,2.4,92.2z"/>
	<path d="M1.3,94.2c0.3-0.6,0.6-1.1,1-1.7C1.9,93.1,1.6,93.7,1.3,94.2z"/>
	<path d="M4.4,89c-0.3,0.4-0.6,0.8-0.8,1.3C3.9,89.9,4.2,89.5,4.4,89z"/>
	<path d="M3.2,90.9c-0.3,0.4-0.5,0.9-0.8,1.3C2.7,91.8,3,91.3,3.2,90.9z"/>
	<linearGradient id="SVGID_4_" gradientUnits="userSpaceOnUse" x1="31.9403" y1="97.4259" x2="31.9403" y2="65.7728">
		<stop  offset="0" style="stop-color:#312783"/>
		<stop  offset="0.3703" style="stop-color:#3172FF"/>
		<stop  offset="0.7" style="stop-color:#31BDFF"/>
	</linearGradient>
	<path class="st5" d="M46.5,61.2C29,63.7,13.8,75.3,4.7,88.7c-0.1,0.1-0.1,0.2-0.2,0.3c-0.3,0.4-0.6,0.8-0.8,1.3
		c-0.1,0.2-0.3,0.4-0.4,0.6c-0.3,0.4-0.5,0.9-0.8,1.3c-0.1,0.1-0.1,0.2-0.2,0.3c-0.3,0.6-0.6,1.1-1,1.7C-0.8,98,0,100,4,100h15.5
		c6.8,0,9-1.4,11.3-5.9c2.5-5,5.6-9.5,9-13.3c10.9-12.6,24-18.9,24-18.9C57.8,60.6,52.1,60.4,46.5,61.2z"/>
	<linearGradient id="SVGID_5_" gradientUnits="userSpaceOnUse" x1="113.7434" y1="49.8554" x2="113.7434" y2="93.9318">
		<stop  offset="0" style="stop-color:#312783"/>
		<stop  offset="0.3703" style="stop-color:#3172FF"/>
		<stop  offset="0.7" style="stop-color:#31BDFF"/>
	</linearGradient>
	<path class="st6" d="M103.6,77.9L103.6,77.9l-3.2,18.1c-0.5,3,0.3,4.1,3.4,4.1h11.7c3.1,0,4.4-1.1,4.9-4.1l6.1-34.8
		c0.1-0.4,0.3-0.6,0.6-0.6C121.5,61.1,105.7,66.4,103.6,77.9z"/>
	<linearGradient id="SVGID_6_" gradientUnits="userSpaceOnUse" x1="103.6355" y1="60.2671" x2="142.8983" y2="60.2671">
		<stop  offset="0" style="stop-color:#312783"/>
		<stop  offset="0.3703" style="stop-color:#3172FF"/>
		<stop  offset="0.7" style="stop-color:#31BDFF"/>
	</linearGradient>
	<path class="st7" d="M139.3,42.7H136c-9.3,0.3-16.7,1.4-22.3,3.4c-3.9,1.3-4.8,2.7-5.6,6.4l-4.5,25.3l0,0
		c2-11.4,17.9-16.7,23.6-17.4c1.4-0.3,3.1-0.4,5-0.4h4.1c3.1,0,4.3-1.1,4.8-4.2l1.6-9.1C143.3,43.7,142.4,42.7,139.3,42.7z"/>
	<path class="st1" d="M207,31.2c-0.1,0.3-0.1,0.6-0.1,0.9C207.2,30.2,208.5,24,207,31.2z"/>
	<linearGradient id="SVGID_7_" gradientUnits="userSpaceOnUse" x1="206.7617" y1="31.9691" x2="228.3092" y2="31.9691">
		<stop  offset="0" style="stop-color:#FF5200"/>
		<stop  offset="0.527" style="stop-color:#F39200"/>
		<stop  offset="1" style="stop-color:#F3FF00"/>
	</linearGradient>
	<path class="st8" d="M207,31.2c1.5-7.2,0.2-0.9-0.1,0.9c-1,7.8,6.4,12,18,11.1l3.3-18.3c0.5-3-0.3-4.1-3.4-4.1h-11.7
		c-3.1,0-4.4,1.1-4.9,4.1l-1.4,7.7c0,0,0-0.2,0.1-0.5C206.9,31.7,206.9,31.5,207,31.2z"/>
	<linearGradient id="SVGID_8_" gradientUnits="userSpaceOnUse" x1="223.6019" y1="90.8517" x2="230.8096" y2="40.1922">
		<stop  offset="0" style="stop-color:#FF5200"/>
		<stop  offset="0.527" style="stop-color:#F39200"/>
		<stop  offset="1" style="stop-color:#F3FF00"/>
	</linearGradient>
	<path class="st9" d="M232.2,42.7c-2.4,0-4.8,0.1-7.4,0.4c-11.6,1-19-3.3-18-11.1c-4.1,23.4,3.1,30.6,14.9,29.1
		c1.2-0.3,2.9-0.4,5.1-0.4c4.3,0,6.1,1.9,5.4,5.9l-5.1,29.4c-0.5,3,0.2,4.1,3.3,4.1h11.8c3,0,4.3-1.1,4.8-4.1l5.3-29.8
		C254.8,51.1,248.4,42.7,232.2,42.7z"/>
</g>
</svg>
